Coordinates
version=1
nRows=19
nColumns=36
inDegrees=yes

Units are S.I. units (second, meters, Newtons, ...)
If the header above contains a line with 'inDegrees', this indicates whether rotational values are in degrees (yes) or radians (no).

endheader
time	pelvis_tilt	pelvis_list	pelvis_rotation	pelvis_tx	pelvis_ty	pelvis_tz	hip_flexion_r	hip_adduction_r	hip_rotation_r	knee_angle_r	knee_angle_r_beta	ankle_angle_r	subtalar_angle_r	mtp_angle_r	hip_flexion_l	hip_adduction_l	hip_rotation_l	knee_angle_l	knee_angle_l_beta	ankle_angle_l	subtalar_angle_l	mtp_angle_l	lumbar_extension	lumbar_bending	lumbar_rotation	arm_flex_r	arm_add_r	arm_rot_r	elbow_flex_r	pro_sup_r	arm_flex_l	arm_add_l	arm_rot_l	elbow_flex_l	pro_sup_l
      1.84583330	    -23.42284345	     -2.00843472	      2.32200347	      0.17985562	      0.53979372	     -0.02605414	     98.86681599	     -7.23810837	      5.10116300	    113.06039110	      1.97327608	     36.35534714	    -19.50250390	     -7.49999987	     95.72655979	     -6.40572538	     12.90603605	    116.40683418	      2.03168253	     37.04159688	     -8.81587986	     -7.49999987	    -28.89658735	      0.15492275	      2.21197201	     81.31304846	    -13.91079961	     32.03471951	     99.89456134	    104.36385616	     88.18220808	    -16.74396084	     27.08436119	    115.82021232	     94.12146146
      1.85000000	    -23.45740280	     -1.91730520	      2.37832555	      0.18514095	      0.54649367	     -0.02245907	     97.74705352	     -7.21598151	      4.86716367	    112.20867252	      1.95841078	     36.42500295	    -19.64901900	     -7.49999987	     94.43963446	     -6.47018274	     12.40699867	    115.27645726	      2.01195373	     37.21164217	     -9.16147443	     -7.49999987	    -28.47980936	      0.15165442	      1.98014147	     80.90530646	    -13.86834059	     32.34084360	    100.18020198	    104.36566692	     87.84960239	    -16.65647082	     27.15789608	    116.12580723	     94.17522617
      1.85416670	    -23.05036811	     -1.72440846	      2.37952316	      0.18862218	      0.55131765	     -0.02710185	     96.37799663	     -7.39611061	      4.89258592	    111.52626748	      1.94650057	     36.27677966	    -19.61580303	     -7.49999987	     93.04192301	     -6.21778040	     11.84054057	    114.58065430	      1.99980968	     36.79439121	    -10.18299210	     -7.49999987	    -28.71784247	      0.13913565	      1.74673256	     80.94789806	    -13.88400828	     32.41548083	    100.85675274	    104.33573490	     87.81508242	    -16.42696737	     26.72442419	    116.71168735	     94.28466838
      1.85833330	    -22.41212722	     -1.62543781	      2.29742023	      0.18101203	      0.55747574	     -0.02693182	     95.10216434	     -7.24757150	      4.79488821	    110.66701779	      1.93150383	     36.00093411	    -20.16226145	     -7.49999987	     91.70948015	     -5.95901492	     11.39760655	    113.76278976	      1.98553525	     36.48437443	    -11.35845902	     -7.49999987	    -29.26284564	      0.17715505	      1.73932154	     81.39170027	    -13.76368540	     32.42387635	    100.82603678	    104.27339917	     88.46836460	    -16.14421704	     26.52561515	    116.26414346	     94.38029693
      1.86250000	    -21.92777328	     -1.61215880	      2.29773662	      0.18111290	      0.56204266	     -0.02571194	     94.09871924	     -7.10798912	      4.59621377	    109.98234725	      1.91955408	     35.76240058	    -20.58144340	     -7.49999987	     90.75607507	     -5.78158476	     11.30602451	    113.09554644	      1.97388965	     36.12534058	    -12.11383126	     -7.49999987	    -29.60962318	      0.29338691	      1.87137083	     81.63001852	    -13.69950189	     32.56470321	    100.43494232	    102.72882246	     88.88071653	    -15.89315410	     26.78755759	    115.38358044	     92.97828942
      1.86666670	    -21.45456747	     -1.61775832	      2.32881348	      0.17895810	      0.56837892	     -0.02166680	     92.98899930	     -6.79189392	      4.31317067	    109.23784680	      1.90656009	     35.35813948	    -21.41110112	     -7.49999987	     89.85975161	     -5.61091522	     11.30595261	    112.31674241	      1.96029696	     35.57816348	    -12.81065364	     -7.49999987	    -29.98259008	      0.26694867	      2.03496538	     82.00906049	    -13.57528742	     32.11058505	     99.78457978	    102.79772066	     89.64597566	    -15.81710458	     26.82287622	    114.43315725	     93.14583833
      1.87083330	    -21.47920683	     -1.60189343	      2.40163105	      0.18342989	      0.56964697	     -0.02597073	     92.63375856	     -6.78070523	      4.22482497	    108.90811469	      1.90080518	     35.37715981	    -21.58302217	     -7.49999987	     89.56844579	     -5.38655664	     11.29830065	    111.73032739	      1.95006209	     35.62721152	    -12.79152735	     -7.49999987	    -29.54438227	      0.32599655	      2.03232870	     82.11676248	    -13.54821731	     32.08885003	     99.85537734	    102.79721956	     89.67801011	    -15.87643089	     26.80670779	    114.37399257	     93.15206894
      1.87500000	    -20.96813524	     -1.71372764	      2.59804125	      0.18428993	      0.57306038	     -0.02655420	     91.67527423	     -6.83906831	      4.06120539	    108.35312244	      1.89111874	     35.00744267	    -22.27897548	     -7.49999987	     88.73313009	     -5.06603929	     11.33140013	    111.50651074	      1.94615575	     35.37608083	    -13.33710898	     -7.49999987	    -29.50623173	      0.50017561	      1.65918307	     82.70086916	    -13.35539881	     32.27549580	     99.92925037	    100.49319790	     89.80555358	    -16.20432447	     27.05455287	    113.96020682	     91.16289326
      1.87916670	    -20.79650664	     -1.60349337	      2.55675743	      0.18783498	      0.57764138	     -0.03129013	     90.92021560	     -6.99064074	      4.28360098	    107.74643921	      1.88053012	     34.64714079	    -22.70508420	     -7.49999987	     87.82100416	     -4.60447870	     11.02325871	    110.96922681	      1.93677838	     35.21577873	    -14.21279554	     -7.49999987	    -29.09577109	      0.59842286	      1.46846886	     82.96851780	    -13.03554931	     32.33190429	     99.94213200	    100.77359654	     89.45500227	    -16.30512966	     26.64145552	    113.98599012	     91.36484424
      1.88333330	    -20.93886092	     -1.59200517	      2.41591780	      0.19285106	      0.58360207	     -0.02768323	     90.26747141	     -6.96097145	      4.33375165	    107.17743700	      1.87059916	     34.50487594	    -22.55929307	     -7.49999987	     87.05616123	     -4.68408511	     10.86492059	    110.40196776	      1.92687784	     35.28400399	    -14.31981665	     -7.49999987	    -28.42679182	      0.63306502	      1.55394982	     82.70471389	    -13.02482425	     32.51946414	    100.06330083	    100.81182636	     89.28487052	    -16.37423739	     26.67823503	    114.18848648	     91.38691022
      1.88750000	    -20.67658102	     -1.48276430	      2.16457350	      0.19598085	      0.58527936	     -0.03162701	     89.25880164	     -6.80707677	      4.62276300	    106.90799865	      1.86589657	     34.29238220	    -22.57073752	     -7.49999987	     85.92690721	     -4.75209432	     10.58465692	    109.99493046	      1.91977370	     35.16637128	    -15.17231409	     -7.49999987	    -27.94522375	      0.96142612	      1.35735282	     82.31572861	    -12.88994047	     33.44384769	    100.23230303	    102.53006709	     87.99694611	    -17.08403723	     26.19886419	    115.23307697	     92.03826715
      1.89166670	    -20.75178573	     -1.42962370	      2.07198494	      0.19696228	      0.58837559	     -0.03274650	     88.85300962	     -6.70612154	      4.77432589	    106.56855347	      1.85997214	     34.26268039	    -22.34197271	     -7.49999987	     85.35535672	     -4.71283557	     10.25960882	    109.60315980	      1.91293601	     35.30657921	    -15.63854381	     -7.49999987	    -27.17581042	      1.01742828	      1.50563929	     81.68437038	    -13.17206989	     33.53334228	    100.77224082	    101.08666297	     87.55696170	    -17.06574322	     26.45758135	    115.54616806	     90.78649059
      1.89583330	    -20.72462654	     -1.56160952	      2.11548529	      0.20063549	      0.59329893	     -0.02723776	     88.09921427	     -6.45083974	      4.48162302	    106.28891638	      1.85509155	     34.41293277	    -22.50789981	     -7.49999987	     84.52919249	     -4.92011677	     10.25377804	    109.06210641	      1.90349285	     35.20297682	    -15.85392451	     -7.49999987	    -26.36912240	      1.14937141	      1.42315446	     81.33743244	    -13.21561369	     33.35649240	    101.27745156	    101.13048670	     87.08059756	    -17.25926051	     26.69708503	    115.52958155	     90.87142989
      1.90000000	    -20.95950838	     -1.53527541	      2.14715809	      0.19746334	      0.60186297	     -0.03310752	     87.55403533	     -6.40273734	      4.38597490	    105.24514749	      1.83687435	     34.37554203	    -22.45129567	     -7.49999987	     84.16690920	     -4.70539427	      9.90957639	    108.06177851	      1.88603383	     35.12440145	    -15.79755573	     -7.49999987	    -25.70461747	      1.28098133	      1.35971775	     81.49253977	    -13.23181159	     33.21315393	    101.27755849	    101.03247607	     87.15070878	    -17.16022748	     26.72131360	    115.47747816	     90.82799039
      1.90416670	    -20.68405070	     -1.47367424	      2.13549264	      0.20145791	      0.61084721	     -0.03736316	     86.19889582	     -6.55648861	      4.57801952	    103.76600464	      1.81105843	     33.88771763	    -22.61929388	     -7.49999987	     82.81002077	     -4.36804134	      9.60820994	    106.64948840	      1.86138472	     34.86557604	    -16.32603844	     -7.49999987	    -25.51438799	      1.44048244	      1.41650481	     81.07993327	    -13.69874752	     33.41288908	    101.20453214	    101.09499499	     86.04590634	    -16.50015411	     26.59964977	    115.50880356	     90.88680513
      1.90833330	    -20.47048499	     -1.58734579	      1.98457819	      0.20637417	      0.61775163	     -0.03376669	     84.65172556	     -6.48319291	      4.28015218	    102.21734233	      1.78402918	     33.53780181	    -22.81790197	     -7.49999987	     81.47135533	     -4.41809015	      9.56444574	    105.42641921	      1.84003813	     34.34378699	    -16.79510812	     -7.49999987	    -25.41747823	      1.71214131	      1.74753496	     80.74368905	    -14.23883054	     34.11327336	    101.79628754	    101.17276707	     84.97228782	    -16.08237942	     26.06020463	    115.97626337	     91.00996252
      1.91250000	    -20.17367213	     -1.47885894	      1.99733871	      0.19741145	      0.62413592	     -0.03126637	     83.71230428	     -6.35706923	      4.20222203	    100.84532478	      1.76008295	     32.89873804	    -23.34048084	     -7.49999987	     80.50705813	     -4.26223803	      9.39957037	    104.12780814	      1.81737309	     33.94237356	    -17.13463417	     -7.49999987	    -25.67695967	      1.59524351	      1.82303033	     81.83977699	    -14.03648969	     35.01333957	    101.44704130	    101.11602382	     85.47349863	    -16.04681528	     26.02260069	    115.65922818	     91.10124896
      1.91666670	    -20.23645508	     -1.46811531	      2.06446487	      0.20318108	      0.62715917	     -0.02833234	     83.19169397	     -6.12859077	      4.12537328	    100.09643348	      1.74701233	     33.05719592	    -23.58018655	     -7.49999987	     79.85728220	     -4.27991211	      9.68454147	    103.13262628	      1.80000389	     33.69706172	    -17.06298878	     -7.49999987	    -24.93883031	      1.56165467	      1.85428064	     82.11122839	    -13.81181801	     35.00395735	    101.59285746	    101.08484401	     85.63288504	    -16.16580410	     26.01436114	    115.50975248	     91.09887778
      1.92083330	    -19.88258956	     -1.41439525	      2.08151627	      0.20710858	      0.63585409	     -0.03252566	     81.68726528	     -5.78162799	      4.04604502	     98.91365252	      1.72636891	     32.68950331	    -24.25513236	     -7.49999987	     78.62278756	     -4.20224261	      9.59461442	    102.07893474	      1.78161351	     33.08031756	    -17.49381882	     -7.49999987	    -24.69866352	      1.70153340	      1.94220589	     81.79134787	    -13.66732093	     35.02832498	    101.73184702	    100.99475311	     85.41990423	    -16.25633760	     26.26556200	    115.51084997	     91.07582976
